<svg width="44" height="44" viewBox="0 0 44 44" fill="none" xmlns="http://www.w3.org/2000/svg">
<path d="M30.3046 31.8451C30.3046 29.3694 31.8098 26.4935 33.6666 25.4217C34.491 24.9456 35.2457 24.9074 35.8304 25.227L35.8311 25.2256C35.8311 25.2256 37.6089 26.2317 37.6902 26.2881L37.6992 26.2931L37.6989 26.2938C38.3371 26.7413 38.7349 27.6587 38.7349 28.9307C38.7349 31.4061 37.23 34.2819 35.3732 35.3538C34.5706 35.8174 33.8337 35.8671 33.2557 35.5747C33.2053 35.5492 31.5446 34.6059 31.5446 34.6059L31.545 34.6045C30.7887 34.2195 30.3046 33.2477 30.3046 31.8451Z" fill="#23292E"/>
<path d="M6.85755 22.6964L9.01908 11.8337C9.3541 10.1512 10.3978 8.69461 11.8835 7.83691L15.0649 6L24.8615 11.7182V13.3399L29.1332 10.8736V10.8602L38.9283 16.5918H38.9297V27.1473C38.9297 28.6573 38.124 30.0524 36.8165 30.8074L23.3599 38.5767C21.9836 39.3713 20.3558 39.138 19.2534 38.2091L12.6516 34.1848C12.6516 34.1848 8.79181 32.6302 8.29331 30.6161L6.91126 25.0301C6.72193 24.2657 6.7038 23.4688 6.85755 22.6964Z" fill="#FFE400"/>
<path d="M24.8616 14.9632L29.6959 12.1719L35.0015 15.2384L35.0012 15.2381C35.3419 15.3751 35.6011 15.7037 35.6011 16.1226V17.403L24.8616 23.6036V14.9632Z" fill="#2E373D"/>
<path d="M38.9297 16.5884L24.8615 24.7105V11.7148L21.6801 13.5518C20.1943 14.4095 19.1506 15.866 18.8156 17.5485L16.6538 28.4112C16.5 29.1837 16.5185 29.9802 16.7078 30.745L18.0898 36.3306C18.6625 38.6455 21.2947 39.7657 23.3599 38.5733L36.8165 30.804C38.124 30.0491 38.9297 28.6539 38.9297 27.144V16.5884Z" fill="#FDCA00"/>
<path d="M15.0648 5.99843L24.7633 0.400077C25.6818 -0.129983 26.8124 -0.133675 27.7339 0.391013L37.522 6.03032C38.3925 6.53286 38.9282 7.46138 38.9282 8.46611V16.5899L36.1151 18.214V10.5756C36.1151 9.63836 35.1006 9.05224 34.2886 9.52086L24.8613 14.9638V11.7163L15.0648 5.99843Z" fill="#CACACA"/>
<path d="M24.8613 11.715L34.7096 6.02899C35.58 5.52679 36.6519 5.52679 37.522 6.02899C38.3925 6.53152 38.9282 7.46005 38.9282 8.46478V16.5886L36.1151 18.2126V10.5743C36.1151 9.63702 35.1006 9.0509 34.2886 9.51953L24.8613 14.9625V11.715Z" fill="#5B5E71"/>
<path d="M9.01755 11.8633L18.8158 17.5486L23.0371 15.1118V24.3722L16.7338 28.0115L6.9339 22.3325L9.01755 11.8633Z" fill="#304E75"/>
<path d="M23.0371 24.3737L16.7338 28.013L18.8158 17.5501L23.0371 15.1133V24.3737Z" fill="#243B58"/>
<path d="M9.01727 11.8633L13.2222 14.3034V18.6956L6.93497 22.3258L9.01727 11.8633Z" fill="#59718B"/>
<path d="M5.51261 40.0879C5.51261 37.6125 7.01752 34.7366 8.87424 33.6648C9.69904 33.1884 10.454 33.1491 11.0388 33.4687C11.0388 33.4687 12.817 34.4748 12.8985 34.5312L12.9073 34.5362L12.9066 34.5369C13.5447 34.9844 13.9429 35.9018 13.9429 37.1734C13.9429 39.6492 12.4376 42.5251 10.5809 43.5969C9.77826 44.0602 9.04175 44.1102 8.46369 43.8178C8.41333 43.7923 6.75232 42.8487 6.75232 42.8487L6.75266 42.8483C5.996 42.4633 5.51261 41.4908 5.51261 40.0879Z" fill="#23292E"/>
<path d="M7.21927 41.0531C7.21927 43.5289 8.72452 44.6669 10.5812 43.5947C12.438 42.5228 13.9429 39.6469 13.9429 37.1715C13.9429 34.6958 12.438 33.5581 10.5812 34.63C8.72452 35.7018 7.21927 38.5777 7.21927 41.0531Z" fill="#2E373D"/>
<path d="M8.92832 40.0672C8.92832 41.2844 9.66818 41.844 10.5813 41.317C11.494 40.7899 12.2339 39.376 12.2339 38.1588C12.2339 36.9415 11.494 36.3823 10.5813 36.9093C9.66818 37.4364 8.92832 38.8503 8.92832 40.0672Z" fill="#CECECE"/>
<path d="M9.6846 39.6332C9.6846 40.2932 10.0861 40.5966 10.5812 40.3106C11.0764 40.025 11.4775 39.2579 11.4775 38.5979C11.4775 37.9376 11.0764 37.6342 10.5812 37.9202C10.0861 38.2058 9.6846 38.9729 9.6846 39.6332Z" fill="#2E373D"/>
<path d="M32.0113 32.8151C32.0113 35.2905 33.5165 36.4285 35.3732 35.3567C37.23 34.2845 38.7349 31.4086 38.7349 28.9332C38.7349 26.4578 37.23 25.3198 35.3732 26.3916C33.5165 27.4638 32.0113 30.3397 32.0113 32.8151Z" fill="#2E373D"/>
<path d="M33.7205 31.8292C33.7205 33.0461 34.4607 33.6057 35.3734 33.0786C36.2862 32.5516 37.0264 31.1377 37.0264 29.9204C37.0264 28.7035 36.2862 28.1439 35.3734 28.671C34.4607 29.198 33.7205 30.612 33.7205 31.8292Z" fill="#CECECE"/>
<path d="M34.4771 31.391C34.4771 32.051 34.8782 32.3545 35.3734 32.0688C35.8685 31.7828 36.27 31.016 36.27 30.3557C36.27 29.6954 35.8685 29.392 35.3734 29.678C34.8782 29.964 34.4771 30.7307 34.4771 31.391Z" fill="#2E373D"/>
<path d="M5.0278 36.8339C5.0278 35.9212 5.24399 35.0215 5.65891 34.2088C6.1658 33.2148 6.94998 32.389 7.91611 31.8311L8.96482 31.2258C9.48648 30.9247 10.129 30.9247 10.6507 31.2258L14.6649 33.524C15.1866 33.8251 15.5078 34.3817 15.5078 34.9843V37.2257C15.5078 37.799 15.0855 38.2845 14.5179 38.3644L9.04202 39.1321L5.0278 36.8339Z" fill="#FFE400"/>
<path d="M9.04202 39.1311C9.04202 38.2184 9.25821 37.3187 9.67279 36.5057C10.18 35.5117 10.9639 34.6859 11.9303 34.128L12.9787 33.5227C13.5004 33.2216 14.1432 33.2216 14.6649 33.5227C15.1866 33.8238 15.5078 34.3804 15.5078 34.983V37.2244C15.5078 37.7978 15.0855 38.2832 14.5179 38.3631L9.04202 39.1311Z" fill="#FDCA00"/>
<path d="M7.1844 29.3558L8.07903 28.8395C8.92564 28.3504 9.96898 28.3504 10.8156 28.8395C12.3766 29.7405 12.3766 31.9937 10.8156 32.895L9.21031 33.8403C8.92329 34.0296 8.5396 34.0253 8.1173 33.7816C7.22972 33.269 6.51033 31.8943 6.51033 30.7106C6.51033 29.9916 6.77654 29.5092 7.1844 29.3558Z" fill="#CECECE"/>
<path d="M6.51035 30.7123C6.51035 31.896 7.23007 33.2707 8.11765 33.7833C9.00522 34.2955 9.72461 33.7517 9.72461 32.568C9.72461 31.3847 9.00522 30.0101 8.11765 29.4975C7.22974 28.9852 6.51035 29.529 6.51035 30.7123Z" fill="#82A5B9"/>
<path d="M6.97781 30.9826C6.97781 31.8215 7.48807 32.7964 8.11716 33.1596C8.74658 33.5232 9.25684 33.1374 9.25684 32.2982C9.25684 31.459 8.74658 30.4845 8.11716 30.1212C7.48807 29.7577 6.97781 30.1434 6.97781 30.9826Z" fill="white"/>
<path d="M29.6958 12.1719L35.0015 15.2384C34.7457 15.1354 34.4442 15.1401 34.172 15.2972C33.413 15.7356 32.9453 16.5453 32.9453 17.4214V18.9042L30.5552 20.3131L24.8615 16.9867V14.9632L29.6958 12.1719Z" fill="#525E65"/>
</svg>
