<svg width="43" height="44" viewBox="0 0 43 44" fill="none" xmlns="http://www.w3.org/2000/svg">
<path d="M38.5919 8.70832L38.5924 8.7072L36.9709 7.76154L36.9699 7.76352C35.6944 7.04328 34.0388 7.11727 32.2276 8.16296C28.1982 10.4893 24.9317 16.7305 24.9317 22.103C24.9317 25.0378 25.9078 27.1035 27.4492 27.9972L27.4483 27.999L29.2856 29.0575L29.2863 29.0562C30.5639 29.7859 32.2257 29.7157 34.0442 28.6658C38.0735 26.3395 41.34 20.0983 41.34 14.7257C41.3401 11.647 40.2662 9.52421 38.5919 8.70832Z" fill="#373451"/>
<path d="M30.3271 27.639C27.6067 26.4799 27.0623 21.6421 29.1112 16.8334C31.1601 12.0248 35.0264 9.06629 37.7468 10.2254C40.4672 11.3846 41.0116 16.2224 38.9627 21.031C36.9138 25.8397 33.0475 28.7982 30.3271 27.639Z" fill="#49456C"/>
<path d="M39.0212 16.0629C39.0212 19.7278 36.793 23.9852 34.0444 25.572C31.2957 27.159 29.0675 25.4745 29.0675 21.8096C29.0675 18.1447 31.2957 13.8873 34.0444 12.3003C36.793 10.7135 39.0212 12.398 39.0212 16.0629Z" fill="#D7D1EB"/>
<path d="M32.9127 21.5715C32.0882 21.2201 31.9232 19.7538 32.5442 18.2964C33.1652 16.8389 34.337 15.9422 35.1615 16.2936C35.9861 16.6449 36.1511 18.1112 35.5301 19.5686C34.9091 21.0261 33.7372 21.9228 32.9127 21.5715Z" fill="#373451"/>
<path d="M27.6528 25.4242L27.6527 25.424L36.9995 20.0816L36.9997 20.0819C37.2095 19.9635 37.4817 19.9756 37.7795 20.1476C38.4421 20.5301 38.9792 21.5564 38.9792 22.4398C38.9792 22.9224 38.8187 23.2621 38.5652 23.409L38.5654 23.4093L29.1831 28.7702L29.183 28.77C28.973 28.8899 28.6997 28.8784 28.4006 28.7058C27.738 28.3233 27.2009 27.297 27.2009 26.4136C27.2008 25.9073 27.3774 25.5582 27.6528 25.4242Z" fill="url(#paint0_linear_14274_36002)"/>
<path d="M27.2009 26.4141C27.2009 27.2976 27.738 28.3238 28.4006 28.7064C29.0632 29.0889 29.6003 28.6828 29.6003 27.7995C29.6003 26.916 29.0632 25.8898 28.4006 25.5072C27.738 25.1247 27.2009 25.5307 27.2009 26.4141Z" fill="url(#paint1_linear_14274_36002)"/>
<path d="M27.6539 26.6736C27.6539 27.2234 27.9882 27.8622 28.4005 28.1002C28.8129 28.3384 29.1472 28.0856 29.1472 27.5358C29.1472 26.986 28.8129 26.3473 28.4005 26.1092C27.9881 25.871 27.6539 26.1238 27.6539 26.6736Z" fill="#C5BAEB"/>
<path d="M21.0215 31.6344C21.7257 31.6344 22.4296 31.4492 23.0715 31.0785L28.4912 27.9495C28.8621 27.7353 28.9892 27.2611 28.7751 26.8902C28.5611 26.5194 28.0868 26.3922 27.7158 26.6064L22.2961 29.7354C21.498 30.1962 20.5452 30.1962 19.7471 29.7354C18.9491 29.2747 18.4727 28.4495 18.4727 27.528V25.6387C18.4727 25.2105 18.1255 24.8633 17.6973 24.8633C17.2691 24.8633 16.9219 25.2105 16.9219 25.6387V27.528C16.9219 29.0102 17.6882 30.3375 18.9718 31.0785C19.6134 31.4491 20.3176 31.6344 21.0215 31.6344Z" fill="#D7D1EB"/>
<path d="M26.5413 21.5501L33.5084 17.5277C33.8012 17.3586 34.1314 17.3891 34.3811 17.5475L34.3817 17.5473L35.2237 18.0334L35.2229 18.0338C35.4833 18.1714 35.673 18.4414 35.673 18.778C35.673 19.4463 35.3165 20.0639 34.7376 20.3982L27.4418 24.6104V23.5699L26.5412 24.0899L26.5413 21.5501Z" fill="url(#paint2_linear_14274_36002)"/>
<path d="M27.4419 22.0702L34.409 18.0477C34.9707 17.7234 35.673 18.1288 35.673 18.7775C35.673 19.4459 35.3165 20.0635 34.7376 20.3977L27.4419 24.6099V22.0702Z" fill="#A996EB"/>
<path d="M20.2529 21.1987C20.2523 21.1799 20.2658 21.1601 20.2925 21.1446L24.5305 18.7104C24.5786 18.6827 24.6512 18.6797 24.6927 18.7037L27.619 20.3932C27.6369 20.4036 27.6461 20.4171 27.647 20.4316H27.6472V24.6692H27.6471C27.6473 24.6877 27.6339 24.7073 27.6074 24.7226L23.3694 27.1568C23.3214 27.1845 23.2488 27.1876 23.2073 27.1635L20.2809 25.474C20.2618 25.463 20.2527 25.448 20.253 25.4325H20.2528L20.2529 21.1987Z" fill="#C5BAEB"/>
<path d="M20.2809 21.2382L23.2073 22.9278C23.2489 22.9518 23.3215 22.9487 23.3694 22.9211L27.6074 20.4869C27.6555 20.4592 27.6606 20.4173 27.619 20.3932L24.6927 18.7037C24.6511 18.6797 24.5785 18.6827 24.5305 18.7104L20.2925 21.1446C20.2446 21.1723 20.2393 21.2143 20.2809 21.2382Z" fill="url(#paint3_linear_14274_36002)"/>
<path d="M21.2838 16.8573L25.8192 14.2389C25.9978 14.1358 26.1909 14.1463 26.3455 14.2274L26.3456 14.2268L26.3529 14.2309C26.3606 14.2351 26.3681 14.2395 26.3756 14.2441L28.758 15.621C28.9729 15.7314 29.1148 15.978 29.0401 16.2535L27.256 22.8369C27.1341 23.2866 26.6506 23.4683 26.2762 23.3011L26.2759 23.3019L26.2672 23.2969C26.2297 23.2795 26.1934 23.2588 26.1587 23.2343L23.8461 21.899C23.7415 21.8496 23.6454 21.7742 23.5696 21.6673L21.0185 18.0717C20.732 17.6678 20.8549 17.1049 21.2838 16.8573Z" fill="#AB2C37"/>
<path d="M23.7005 18.2524L28.2359 15.6339C28.66 15.389 29.1682 15.78 29.0401 16.2528L27.256 22.8362C27.0983 23.4178 26.335 23.5537 25.9863 23.0623L23.4353 19.4668C23.1487 19.0628 23.2716 18.5 23.7005 18.2524Z" fill="url(#paint4_linear_14274_36002)"/>
<path d="M23.2943 22.0067L23.2945 22.0063L19.6385 19.9452L19.6382 19.9459C19.1852 19.69 18.5972 19.7163 17.9541 20.0877C16.5231 20.9138 15.3631 23.1302 15.3631 25.038C15.3631 26.0803 15.7098 26.8137 16.2571 27.1311L16.2568 27.1318L19.9894 29.2331L19.9897 29.2325C20.4433 29.4917 21.0334 29.4668 21.6793 29.0939C23.1102 28.2678 24.2702 26.0514 24.2702 24.1435C24.2702 23.0502 23.8888 22.2964 23.2943 22.0067Z" fill="url(#paint5_linear_14274_36002)"/>
<path d="M24.2702 24.1446C24.2702 26.0525 23.1102 28.2688 21.6793 29.095C20.2484 29.9211 19.0883 29.0442 19.0883 27.1363C19.0883 25.2284 20.2483 23.012 21.6793 22.1859C23.1102 21.3598 24.2702 22.2367 24.2702 24.1446Z" fill="url(#paint6_linear_14274_36002)"/>
<path d="M23.5402 24.5639C23.5402 25.9343 22.707 27.5264 21.6792 28.1198C20.6513 28.7132 19.8181 28.0834 19.8181 26.7128C19.8181 25.3424 20.6513 23.7503 21.6792 23.1569C22.707 22.5635 23.5402 23.1934 23.5402 24.5639Z" fill="#C5BAEB"/>
<path d="M16.5884 21.7055C16.5878 21.6868 16.6013 21.6669 16.628 21.6515L19.9387 19.7455C19.9868 19.7179 20.0594 19.7149 20.1009 19.7388L23.0273 21.4284C23.0451 21.4387 23.0542 21.4523 23.0552 21.4667H23.0554V22.5503C23.0556 22.5689 23.0421 22.5884 23.0157 22.6037L19.7049 24.5097C19.6569 24.5374 19.5843 24.5404 19.5427 24.5164L16.6164 22.8268C16.5972 22.8157 16.5881 22.8009 16.5885 22.7854H16.5884V21.7055Z" fill="url(#paint7_linear_14274_36002)"/>
<path d="M16.6164 21.7451L19.5427 23.4347C19.5843 23.4586 19.6569 23.4556 19.7049 23.428L23.0156 21.522C23.0637 21.4944 23.0688 21.4524 23.0273 21.4284L20.101 19.7388C20.0594 19.7149 19.9868 19.7179 19.9388 19.7455L16.6281 21.6515C16.58 21.6792 16.5748 21.7211 16.6164 21.7451Z" fill="#D7D1EB"/>
<path d="M16.5884 20.2915C16.5878 20.2728 16.6013 20.2529 16.628 20.2374L19.9387 18.3315C19.9868 18.3038 20.0594 18.3008 20.1009 18.3248L23.0273 20.0143C23.0451 20.0247 23.0542 20.0382 23.0552 20.0527H23.0554V21.1363C23.0556 21.1548 23.0421 21.1744 23.0157 21.1897L19.7049 23.0956C19.6569 23.1233 19.5843 23.1263 19.5427 23.1023L16.6164 21.4128C16.5972 21.4017 16.5881 21.3868 16.5885 21.3714H16.5884V20.2915Z" fill="url(#paint8_linear_14274_36002)"/>
<path d="M16.6164 20.3311L19.5427 22.0206C19.5843 22.0446 19.6569 22.0416 19.7049 22.0139L23.0156 20.108C23.0637 20.0803 23.0688 20.0384 23.0273 20.0143L20.101 18.3248C20.0594 18.3008 19.9868 18.3038 19.9388 18.3315L16.6281 20.2374C16.58 20.2652 16.5748 20.3071 16.6164 20.3311Z" fill="#D7D1EB"/>
<path d="M16.5884 18.8814C16.5878 18.8626 16.6013 18.8428 16.628 18.8273L19.9387 16.9214C19.9868 16.8936 20.0594 16.8906 20.1009 16.9147L23.0273 18.6042C23.0451 18.6145 23.0542 18.6281 23.0552 18.6425H23.0554V19.7261C23.0556 19.7447 23.0421 19.7643 23.0157 19.7796L19.7049 21.6855C19.6569 21.7132 19.5843 21.7162 19.5427 21.6922L16.6164 20.0027C16.5972 19.9916 16.5881 19.9767 16.5885 19.9613H16.5884V18.8814Z" fill="url(#paint9_linear_14274_36002)"/>
<path d="M16.6164 18.9209L19.5427 20.6105C19.5843 20.6344 19.6569 20.6314 19.7049 20.6038L23.0156 18.6978C23.0637 18.6702 23.0688 18.6282 23.0273 18.6042L20.101 16.9146C20.0594 16.8906 19.9868 16.8937 19.9388 16.9213L16.6281 18.8273C16.58 18.855 16.5748 18.8969 16.6164 18.9209Z" fill="#D7D1EB"/>
<path d="M20.8073 10.4947C20.8073 8.85994 21.6795 7.34924 23.0953 6.53189L30.8794 2.0377C31.3218 1.7823 31.8283 1.86935 32.1686 2.16068L32.1703 2.15922L37.641 5.39012C37.7815 5.43954 37.9112 5.51594 38.0223 5.61528L38.0286 5.61898L38.0276 5.61975C38.2479 5.81938 38.3932 6.10676 38.3932 6.44544C38.3932 8.08031 37.5211 9.59092 36.1053 10.4083L28.3212 14.9025C27.8207 15.1914 27.2376 15.0431 26.907 14.6549L26.9061 14.6556L21.4255 11.4931C21.3867 11.4736 21.3492 11.4519 21.3129 11.4281L21.2908 11.4154L21.2921 11.4143C21.006 11.2177 20.8073 10.8912 20.8073 10.4947Z" fill="url(#paint10_linear_14274_36002)"/>
<path d="M28.3212 14.9021L36.1053 10.408C37.5212 9.59053 38.3932 8.07992 38.3932 6.44513C38.3932 5.58352 37.4605 5.04504 36.7144 5.47584L28.9302 9.97003C27.5144 10.7874 26.6423 12.2981 26.6423 13.9329C26.6423 14.7944 27.575 15.3329 28.3212 14.9021Z" fill="#BA5C25"/>
<path d="M11.311 8.76572C12.3915 7.89449 13.7948 7.28493 15.5193 7.56483C17.1396 7.8278 18.3272 8.41338 19.1889 9.06074L19.19 9.0598L24.6283 12.1464C24.6578 12.1629 24.6869 12.1795 24.7158 12.1962L24.9615 12.3356L24.9569 12.3402C25.779 12.855 26.3601 13.446 26.7577 13.9624C27.2531 14.6056 27.0626 15.5388 26.3595 15.9448L16.3778 21.7077C16.0031 21.924 15.5761 21.8672 15.2732 21.6398L9.15263 18.1061C8.83724 17.9444 8.60615 17.6207 8.60615 17.2156V14.5633C8.60606 12.3259 9.56934 10.1702 11.311 8.76572Z" fill="url(#paint11_linear_14274_36002)"/>
<path d="M16.3778 21.7083L26.3595 15.9454C27.0626 15.5395 27.2531 14.6063 26.7577 13.963C25.9703 12.9407 24.4677 11.6249 21.7878 11.1898C20.0633 10.9099 18.6601 11.5194 17.5796 12.3907C15.8379 13.7952 14.8745 15.9509 14.8745 18.1882V20.8405C14.8745 21.6119 15.7097 22.094 16.3778 21.7083Z" fill="url(#paint12_linear_14274_36002)"/>
<path d="M6.383 32.7895C6.93145 32.7895 7.41751 32.3963 7.516 31.8374L11.1612 11.1565C11.2716 10.53 10.8533 9.93258 10.2267 9.82223C9.60075 9.71232 9.0028 10.1302 8.89246 10.7567L5.24725 31.4377C5.13682 32.0641 5.55516 32.6616 6.18173 32.7719C6.24919 32.7837 6.31665 32.7895 6.383 32.7895Z" fill="#C5BAEB"/>
<path d="M13.6603 23.1693L13.6608 23.1681L12.0392 22.2225L12.0383 22.2245C10.7627 21.5042 9.10713 21.5782 7.29591 22.6239C3.26656 24.9502 7.82013e-05 31.1914 7.82013e-05 36.564C7.82013e-05 39.4988 0.976242 41.5644 2.51753 42.4581L2.51667 42.46L4.35393 43.5185L4.35462 43.517C5.63225 44.2469 7.29402 44.1766 9.11255 43.1267C13.1419 40.8004 16.4084 34.5592 16.4084 29.1866C16.4086 26.1079 15.3347 23.9851 13.6603 23.1693Z" fill="#373451"/>
<path d="M5.75102 41.2462C3.29325 40.199 2.80142 35.8283 4.65248 31.4839C6.50355 27.1396 9.99654 24.4668 12.4543 25.514C14.9121 26.5612 15.4039 30.9319 13.5528 35.2763C11.7018 39.6206 8.20878 42.2934 5.75102 41.2462Z" fill="#49456C"/>
<path d="M14.0895 30.5238C14.0895 34.1887 11.8613 38.4461 9.11272 40.0329C6.36401 41.6199 4.13582 39.9354 4.13582 36.2706C4.13582 32.6057 6.36401 28.3483 9.11272 26.7612C11.8613 25.1744 14.0895 26.8589 14.0895 30.5238Z" fill="#D7D1EB"/>
<path d="M10.9421 32.3446C10.9421 33.6916 10.1231 35.2565 9.11281 35.8398C8.10253 36.423 7.28354 35.8039 7.28354 34.4568C7.28354 33.1098 8.10253 31.5449 9.11281 30.9617C10.1231 30.3784 10.9421 30.9976 10.9421 32.3446Z" fill="#373451"/>
<path d="M15.0228 14.1871C17.1325 14.1871 18.8488 12.471 18.8488 10.3615V9.69646L7.70358 3.26172L7.61772 7.27766C7.61772 9.24262 8.67209 11.0783 10.3694 12.0685L13.1015 13.6625C13.6898 14.0057 14.3542 14.1871 15.0228 14.1871ZM16.4267 10.9582C16.1794 11.5414 15.584 11.8833 15.0228 11.8833C14.7579 11.8833 14.502 11.8124 14.2622 11.6725L11.5301 10.0786C10.5411 9.50155 9.92549 8.43352 9.92136 7.28901L9.92317 7.20333L16.4267 10.9582Z" fill="#E9E5F6"/>
<path d="M9.73398 34.7502C10.2699 34.7502 10.7499 34.3742 10.8613 33.8286L15.0606 13.2693C15.1879 12.646 14.7859 12.0375 14.1626 11.9103C13.5396 11.7829 12.9309 12.185 12.8036 12.8083L8.60425 33.3677C8.47697 33.991 8.87899 34.5994 9.5023 34.7268C9.57998 34.7426 9.6575 34.7502 9.73398 34.7502Z" fill="#E9E5F6"/>
<path d="M23.1498 12.4602C23.5509 12.4603 23.9404 12.2506 24.1526 11.8768C24.4666 11.3235 24.2727 10.6205 23.7194 10.3065L20.8216 8.6618C20.5565 8.51124 20.2421 8.47214 19.9484 8.55275L17.3925 9.25366C16.7791 9.42192 16.4181 10.0556 16.5864 10.6691C16.7545 11.2826 17.3882 11.6436 18.0018 11.4753L20.0985 10.9003L22.5823 12.31C22.7617 12.4119 22.9571 12.4602 23.1498 12.4602Z" fill="#E9E5F6"/>
<path d="M23.1498 12.4605C23.5509 12.4605 23.9404 12.2508 24.1526 11.877C24.4666 11.3238 24.2727 10.6207 23.7194 10.3067L20.8216 8.66202C20.2684 8.34801 19.5654 8.54197 19.2513 9.09523C18.9374 9.6485 19.1312 10.3516 19.6845 10.6656L22.5823 12.3102C22.7618 12.4121 22.9571 12.4605 23.1498 12.4605Z" fill="#7C485C"/>
<path d="M27.1997 28.3316C27.5915 28.3316 27.9735 28.1316 28.1892 27.7709C28.5157 27.2249 28.3379 26.5176 27.7921 26.1911L26.0939 25.1753C25.5481 24.8487 24.8406 25.0265 24.5142 25.5724C24.1875 26.1183 24.3653 26.8257 24.9113 27.1522L26.6094 28.168C26.7946 28.2788 26.9985 28.3316 27.1997 28.3316Z" fill="#594A8E"/>
<path d="M8.20304 3.85785C8.6011 3.85785 8.98825 3.65134 9.20163 3.28172C9.51968 2.73078 9.33097 2.02635 8.78002 1.70829L6.08897 0.154545C5.53811 -0.163596 4.83368 0.0252088 4.51554 0.576154C4.19749 1.1271 4.38621 1.83144 4.93715 2.14958L7.6282 3.70325C7.80953 3.80809 8.00761 3.85785 8.20304 3.85785Z" fill="#7C485C"/>
<path d="M7.53392 11.6177L7.53375 11.6172L9.61739 10.4255L9.61774 10.4262C10.123 10.1409 10.7789 10.1702 11.4963 10.5844C13.0925 11.506 14.3864 13.9783 14.3864 16.1065C14.3864 17.2691 13.9997 18.0874 13.3892 18.4414L13.3895 18.4421L11.2204 19.6785L11.2201 19.6779C10.714 19.967 10.0558 19.9392 9.33535 19.5233C7.73923 18.6018 6.44527 16.1295 6.44527 14.0012C6.44527 12.7817 6.87066 11.9408 7.53392 11.6177Z" fill="url(#paint13_linear_14274_36002)"/>
<path d="M7.0133 16.6672C6.05271 14.4127 6.30792 12.1446 7.58333 11.6011C8.85873 11.0577 10.6714 12.4447 11.632 14.6992C12.5926 16.9537 12.3373 19.2218 11.0619 19.7652C9.78653 20.3087 7.9739 18.9216 7.0133 16.6672Z" fill="#D7D1EB"/>
<path d="M7.66373 16.3878C6.97376 14.7685 7.1571 13.1393 8.07324 12.749C8.98937 12.3586 10.2914 13.3549 10.9813 14.9742C11.6713 16.5935 11.488 18.2227 10.5718 18.613C9.6557 19.0034 8.3537 18.0071 7.66373 16.3878Z" fill="#A996EB"/>
<path d="M7.58486 14.2801C7.58486 13.551 7.79661 13.0104 8.14216 12.7155C8.47981 12.5936 8.89111 12.6444 9.33532 12.9009C10.4819 13.5629 11.4113 15.3388 11.4113 16.8674C11.4113 17.5965 11.1996 18.137 10.854 18.432C10.5164 18.5539 10.1051 18.5031 9.66085 18.2466C8.51427 17.5846 7.58486 15.8088 7.58486 14.2801Z" fill="#E9E5F6"/>
<path d="M8.79927 6.38719C8.88684 6.38719 8.97561 6.37722 9.06447 6.35625C9.68365 6.21033 10.0673 5.59003 9.92135 4.97094L9.32546 2.44257C9.17954 1.82339 8.55899 1.43968 7.94015 1.58569C7.32097 1.73161 6.93735 2.35191 7.08327 2.971L7.67916 5.49937C7.80402 6.02969 8.27711 6.38719 8.79927 6.38719Z" fill="#E9E5F6"/>
<defs>
<linearGradient id="paint0_linear_14274_36002" x1="33.5559" y1="25.2336" x2="33.2035" y2="24.6233" gradientUnits="userSpaceOnUse">
<stop stop-color="#C5BAEB"/>
<stop offset="1" stop-color="#E9E5F6"/>
</linearGradient>
<linearGradient id="paint1_linear_14274_36002" x1="27.5341" y1="25.066" x2="28.2498" y2="26.7516" gradientUnits="userSpaceOnUse">
<stop stop-color="#C5BAEB"/>
<stop offset="1" stop-color="#E9E5F6"/>
</linearGradient>
<linearGradient id="paint2_linear_14274_36002" x1="30.5025" y1="21.4621" x2="32.0772" y2="18.7345" gradientUnits="userSpaceOnUse">
<stop stop-color="#C5BAEB"/>
<stop offset="1" stop-color="#E9E5F6"/>
</linearGradient>
<linearGradient id="paint3_linear_14274_36002" x1="27.6472" y1="20.8158" x2="20.2528" y2="20.8158" gradientUnits="userSpaceOnUse">
<stop stop-color="#C5BAEB"/>
<stop offset="1" stop-color="#E9E5F6"/>
</linearGradient>
<linearGradient id="paint4_linear_14274_36002" x1="24.2164" y1="22.8733" x2="28.4227" y2="14.6782" gradientUnits="userSpaceOnUse">
<stop stop-color="#AB2C37"/>
<stop offset="1" stop-color="#FF4757"/>
</linearGradient>
<linearGradient id="paint5_linear_14274_36002" x1="18.8178" y1="26.3208" x2="19.5734" y2="25.0122" gradientUnits="userSpaceOnUse">
<stop stop-color="#C5BAEB"/>
<stop offset="1" stop-color="#E9E5F6"/>
</linearGradient>
<linearGradient id="paint6_linear_14274_36002" x1="23.5507" y1="21.233" x2="22.005" y2="24.8733" gradientUnits="userSpaceOnUse">
<stop stop-color="#C5BAEB"/>
<stop offset="1" stop-color="#E9E5F6"/>
</linearGradient>
<linearGradient id="paint7_linear_14274_36002" x1="19.9558" y1="22.1276" x2="19.3157" y2="22.1276" gradientUnits="userSpaceOnUse">
<stop stop-color="#C5BAEB"/>
<stop offset="1" stop-color="#E9E5F6"/>
</linearGradient>
<linearGradient id="paint8_linear_14274_36002" x1="19.9558" y1="20.7136" x2="19.3157" y2="20.7136" gradientUnits="userSpaceOnUse">
<stop stop-color="#C5BAEB"/>
<stop offset="1" stop-color="#E9E5F6"/>
</linearGradient>
<linearGradient id="paint9_linear_14274_36002" x1="19.9558" y1="19.3034" x2="19.3157" y2="19.3034" gradientUnits="userSpaceOnUse">
<stop stop-color="#C5BAEB"/>
<stop offset="1" stop-color="#E9E5F6"/>
</linearGradient>
<linearGradient id="paint10_linear_14274_36002" x1="27.2871" y1="12.4767" x2="28.2497" y2="10.8095" gradientUnits="userSpaceOnUse">
<stop stop-color="#BA5C25"/>
<stop offset="1" stop-color="#CC8241"/>
</linearGradient>
<linearGradient id="paint11_linear_14274_36002" x1="17.1829" y1="14.9239" x2="19.8689" y2="10.2716" gradientUnits="userSpaceOnUse">
<stop stop-color="#A42C4A"/>
<stop offset="1" stop-color="#FF433F"/>
</linearGradient>
<linearGradient id="paint12_linear_14274_36002" x1="27.0348" y1="16.4826" x2="14.8745" y2="16.4826" gradientUnits="userSpaceOnUse">
<stop stop-color="#AB2C37"/>
<stop offset="1" stop-color="#FF4757"/>
</linearGradient>
<linearGradient id="paint13_linear_14274_36002" x1="10.9709" y1="16.0154" x2="9.05751" y2="12.7013" gradientUnits="userSpaceOnUse">
<stop stop-color="#C5BAEB"/>
<stop offset="1" stop-color="#E9E5F6"/>
</linearGradient>
</defs>
</svg>
